<svg width="1600" height="900" viewBox="0 0 1600 900" xmlns="http://www.w3.org/2000/svg" role="img" aria-label="Grand Vista hotel image">
  <defs>
    <linearGradient id="sky" x1="0" y1="0" x2="0" y2="1">
      <stop offset="0%" stop-color="#2f5f7e"/>
      <stop offset="100%" stop-color="#8fb5c9"/>
    </linearGradient>
    <linearGradient id="building" x1="0" y1="0" x2="1" y2="1">
      <stop offset="0%" stop-color="#d8e2eb"/>
      <stop offset="100%" stop-color="#b9c6d1"/>
    </linearGradient>
  </defs>
  <rect width="1600" height="900" fill="url(#sky)"/>
  <rect x="0" y="640" width="1600" height="260" fill="#365d4f"/>
  <rect x="380" y="170" width="840" height="520" rx="16" fill="url(#building)"/>
  <rect x="730" y="500" width="140" height="190" fill="#46637d"/>
  <g fill="#3f5870">
    <rect x="450" y="240" width="90" height="70"/>
    <rect x="570" y="240" width="90" height="70"/>
    <rect x="690" y="240" width="90" height="70"/>
    <rect x="810" y="240" width="90" height="70"/>
    <rect x="930" y="240" width="90" height="70"/>
    <rect x="1050" y="240" width="90" height="70"/>

    <rect x="450" y="340" width="90" height="70"/>
    <rect x="570" y="340" width="90" height="70"/>
    <rect x="690" y="340" width="90" height="70"/>
    <rect x="810" y="340" width="90" height="70"/>
    <rect x="930" y="340" width="90" height="70"/>
    <rect x="1050" y="340" width="90" height="70"/>
  </g>
  <text x="80" y="130" font-family="Georgia, serif" font-size="68" fill="#ffffff">Grand Vista</text>
</svg>
